#N canvas 610 -517 585 511 10;
#X obj 82 9 netreceive 3000 1;
#X obj 48 194 soundfiler;
#N canvas 0 22 450 278 (subpatch) 0;
#X array A2 61480 float 2;
#X coords 0 1 61480 -1 50 50 1 0 0;
#X restore 690 114 graph;
#N canvas 0 22 450 278 (subpatch) 0;
#X array A1 61480 float 2;
#X coords 0 1 61480 -1 50 50 1 0 0;
#X restore 690 40 graph;
#N canvas 0 22 450 278 (subpatch) 0;
#X array A4 61480 float 2;
#X coords 0 1 61480 -1 50 50 1 0 0;
#X restore 690 270 graph;
#N canvas 0 22 450 278 (subpatch) 0;
#X array A3 1.152e+06 float 2;
#X coords 0 1 1.152e+06 -1 50 50 1 0 0;
#X restore 690 195 graph;
#X msg 25 151 read -resize \$1 \$2;
#X obj 82 41 route load play;
#X obj 73 91 list;
#X obj 131 92 list;
#X obj 173 301 tabplay~;
#X msg 173 271 set \$1 \, bang;
#X obj 98 427 dac~ 1 2 3 4;
#X obj 183 93 print unknown-command;
#X obj 388 188 f;
#X obj 419 188 + 1;
#X obj 388 164 bng 15 250 50 0 empty empty empty 17 7 0 10 -262144
-1 -1;
#X floatatom 388 244 5 0 0 0 - - -, f 5;
#X obj 465 113 loadbang;
#X msg 464 147 0;
#X obj 351 101 trigger bang;
#X obj 391 425 tabplay~;
#X msg 337 27 symbol A1;
#X msg 357 60 symbol A3;
#X obj 242 189 trigger \$1;
#X obj 313 377 print x1;
#X obj 388 222 % 3;
#X obj 371 278 sel 0 1 2;
#X msg 511 303 list set 0;
#X obj 549 368 print x0;
#X obj 488 411 print x3;
#X obj 428 355 symbol;
#X msg 382 407 set list set \$1 \, bang;
#X connect 0 0 7 0;
#X connect 6 0 1 0;
#X connect 7 0 8 0;
#X connect 7 1 9 0;
#X connect 7 2 13 0;
#X connect 8 0 6 0;
#X connect 9 0 11 0;
#X connect 10 0 12 0;
#X connect 11 0 10 0;
#X connect 14 0 15 0;
#X connect 14 0 26 0;
#X connect 15 0 14 1;
#X connect 16 0 14 0;
#X connect 17 0 27 0;
#X connect 18 0 19 0;
#X connect 19 0 14 0;
#X connect 20 0 14 0;
#X connect 22 0 20 0;
#X connect 23 0 20 0;
#X connect 26 0 17 0;
#X connect 27 0 25 0;
#X connect 27 1 31 0;
#X connect 28 0 29 0;
#X connect 28 0 31 1;
#X connect 31 0 30 0;
#X connect 32 0 28 0;
