#N canvas 469 180 679 461 10;
#X msg 93 320 0;
#X obj 186 69 route 1 2 3 4 5;
#X obj 187 39 inlet;
#X obj 54 353 pan_player;
#X obj 62 69 route 1 2 3 4 5;
#X obj 64 37 inlet;
#X text 61 11 load;
#X obj 422 46 inlet;
#X text 382 22 panorama front-back;
#X text 184 14 play;
#X obj 94 297 loadbang;
#X obj 167 353 pan_player;
#X obj 207 297 loadbang;
#X msg 206 320 0.25;
#X obj 277 354 pan_player;
#X obj 317 298 loadbang;
#X obj 390 354 pan_player;
#X obj 430 298 loadbang;
#X obj 501 355 pan_player;
#X obj 541 299 loadbang;
#X msg 316 321 0.5;
#X msg 429 321 0.75;
#X msg 540 322 1;
#X obj 479 93 print setFrontBackBalance;
#X connect 0 0 3 2;
#X connect 1 0 3 1;
#X connect 1 1 11 1;
#X connect 1 2 14 1;
#X connect 1 3 16 1;
#X connect 1 4 18 1;
#X connect 2 0 1 0;
#X connect 4 0 3 0;
#X connect 4 1 11 0;
#X connect 4 2 14 0;
#X connect 4 3 16 0;
#X connect 4 4 18 0;
#X connect 5 0 4 0;
#X connect 7 0 3 3;
#X connect 7 0 11 3;
#X connect 7 0 14 3;
#X connect 7 0 16 3;
#X connect 7 0 23 0;
#X connect 10 0 0 0;
#X connect 12 0 13 0;
#X connect 13 0 11 2;
#X connect 15 0 20 0;
#X connect 17 0 21 0;
#X connect 19 0 22 0;
#X connect 20 0 14 2;
#X connect 21 0 16 2;
#X connect 22 0 18 2;
