#N canvas 619 477 679 461 10;
#X msg 93 320 0;
#X obj 62 69 route 1 2 3 4 5;
#X obj 64 37 inlet;
#X text 61 11 load;
#X obj 199 294 loadbang;
#X msg 194 319 0.25;
#X obj 299 296 loadbang;
#X obj 408 294 loadbang;
#X obj 520 291 loadbang;
#X msg 297 321 0.5;
#X msg 410 320 0.75;
#X msg 525 322 1;
#X obj 336 51 inlet;
#X text 298 25 panorama front-back;
#X obj 167 353 pan_player;
#X obj 54 359 pan_player;
#X obj 277 354 pan_player;
#X obj 390 354 pan_player;
#X obj 501 355 pan_player;
#X obj 94 297 loadbang;
#X connect 0 0 15 1;
#X connect 1 0 15 0;
#X connect 1 1 14 0;
#X connect 1 2 16 0;
#X connect 1 3 17 0;
#X connect 1 4 18 0;
#X connect 2 0 1 0;
#X connect 4 0 5 0;
#X connect 5 0 14 1;
#X connect 6 0 9 0;
#X connect 7 0 10 0;
#X connect 8 0 11 0;
#X connect 9 0 16 1;
#X connect 10 0 17 1;
#X connect 11 0 18 1;
#X connect 12 0 14 2;
#X connect 12 0 15 2;
#X connect 12 0 16 2;
#X connect 12 0 17 2;
#X connect 12 0 18 2;
#X connect 19 0 0 0;
