#N canvas 352 151 951 727 10;
#X obj 622 68 inlet;
#X obj 547 69 inlet;
#X obj 528 365 dac~ 1 2 3 4;
#X text 524 46 play bang;
#X obj 517 197 *~;
#X obj 606 157 expr 1-$f1;
#X obj 602 200 *~;
#X obj 508 295 *~;
#X obj 597 255 expr 1-$f1;
#X obj 593 298 *~;
#X text 617 42 panorama left-right;
#X obj 760 68 inlet;
#X text 755 42 panorama front-back;
#X obj 281 81 inlet;
#N canvas 0 22 450 278 (subpatch) 0;
#X array \$0ar 49682 float 2;
#X coords 0 1 49682 -1 50 50 1 0 0;
#X restore 221 371 graph;
#X obj 266 299 soundfiler;
#X obj 381 295 print loading;
#X obj 354 106 print loading0;
#X obj 277 223 list;
#X obj 284 143 t s b;
#X msg 267 266 read -resize \$1 \$2;
#X obj 359 238 print loading1;
#X obj 282 118 symbol;
#X obj 504 133 tabplay~ \$0ar;
#X text 275 62 load;
#X msg 323 194 symbol \$1ar;
#X obj 331 169 f \$0;
#X connect 0 0 5 0;
#X connect 0 0 6 1;
#X connect 1 0 23 0;
#X connect 4 0 2 0;
#X connect 5 0 4 1;
#X connect 6 0 2 1;
#X connect 7 0 2 2;
#X connect 8 0 7 1;
#X connect 9 0 2 3;
#X connect 11 0 8 0;
#X connect 11 0 9 1;
#X connect 13 0 17 0;
#X connect 13 0 22 0;
#X connect 18 0 20 0;
#X connect 18 0 21 0;
#X connect 19 0 18 0;
#X connect 19 1 26 0;
#X connect 20 0 15 0;
#X connect 20 0 16 0;
#X connect 22 0 19 0;
#X connect 23 0 4 0;
#X connect 23 0 6 0;
#X connect 23 0 7 0;
#X connect 23 0 9 0;
#X connect 25 0 18 1;
#X connect 26 0 25 0;
