#N canvas 489 151 951 727 10;
#X obj 688 67 inlet;
#X obj 547 69 inlet;
#X obj 609 705 dac~ 1 2 3 4;
#X text 524 46 play bang;
#X obj 590 542 *~;
#X obj 613 494 expr 1-$f1;
#X obj 620 541 *~;
#X obj 650 540 *~;
#X obj 685 495 expr 1-$f1;
#X obj 678 538 *~;
#X text 632 44 panorama left-right;
#X obj 760 68 inlet;
#X text 755 42 panorama front-back;
#N canvas 0 22 450 278 (subpatch) 0;
#X array \$0ar 652171 float 2;
#X coords 0 1 652171 -1 50 50 1 0 0;
#X restore 119 673 graph;
#X obj 164 601 soundfiler;
#X obj 279 597 print loading;
#X obj 215 407 print loading0;
#X obj 175 525 list;
#X obj 182 445 t s b;
#X msg 165 568 read -resize \$1 \$2;
#X obj 257 540 print loading1;
#X obj 179 354 symbol;
#X obj 478 421 tabplay~ \$0ar;
#X msg 221 496 symbol \$1ar;
#X obj 229 471 f \$0;
#X obj 575 458 *~;
#X obj 590 400 loadbang;
#X msg 589 423 1;
#X obj 459 221 print setVolume;
#X obj 412 197 print play;
#X obj 400 169 route load play volume stop;
#X obj 503 195 print stop;
#X msg 499 267 stop, f 5;
#X obj 423 341 bng 15 250 50 0 empty empty empty 17 7 0 10 -262144
-1 -1;
#X connect 0 0 5 0;
#X connect 0 0 6 1;
#X connect 1 0 30 0;
#X connect 4 0 2 0;
#X connect 5 0 4 1;
#X connect 6 0 2 1;
#X connect 7 0 2 2;
#X connect 8 0 7 1;
#X connect 9 0 2 3;
#X connect 11 0 8 0;
#X connect 11 0 9 1;
#X connect 17 0 19 0;
#X connect 17 0 20 0;
#X connect 18 0 17 0;
#X connect 18 1 24 0;
#X connect 19 0 14 0;
#X connect 19 0 15 0;
#X connect 21 0 18 0;
#X connect 21 0 16 0;
#X connect 22 0 25 0;
#X connect 23 0 17 1;
#X connect 24 0 23 0;
#X connect 25 0 4 0;
#X connect 25 0 6 0;
#X connect 25 0 7 0;
#X connect 25 0 9 0;
#X connect 26 0 27 0;
#X connect 27 0 25 1;
#X connect 30 0 21 0;
#X connect 30 1 22 0;
#X connect 30 1 29 0;
#X connect 30 2 25 1;
#X connect 30 2 28 0;
#X connect 30 3 31 0;
#X connect 30 3 32 0;
#X connect 32 0 22 0;
#X connect 33 0 22 0;
