#N canvas 44 225 936 653 10;
#X obj 378 36 netreceive 3000 1;
#X obj 535 107 print unknown-command;
#X obj 331 -306 nbx 5 14 -1e+37 1e+37 0 0 empty empty empty 0 -8 0
10 -262144 -1 -1 0 256;
#X obj 396 -392 <;
#X obj 720 211 route A B C D E;
#X obj 95 192 route A B C D E;
#X obj 94 355 multi_channel_player;
#X obj 241 354 multi_channel_player;
#X obj 390 353 multi_channel_player;
#X obj 537 352 multi_channel_player;
#X obj 683 353 multi_channel_player;
#X obj 168 310 loadbang;
#X msg 193 333 0;
#X obj 316 305 loadbang;
#X obj 459 305 loadbang;
#X obj 608 304 loadbang;
#X obj 755 305 loadbang;
#X msg 780 328 1;
#X msg 633 327 0.75;
#X msg 484 328 0.5;
#X msg 333 327 0.25;
#X obj 380 58 route l p;
#X connect 0 0 21 0;
#X connect 4 0 6 1;
#X connect 4 1 7 1;
#X connect 4 2 8 1;
#X connect 4 3 9 1;
#X connect 4 4 10 1;
#X connect 5 0 6 0;
#X connect 5 1 7 0;
#X connect 5 2 8 0;
#X connect 5 3 9 0;
#X connect 5 4 10 0;
#X connect 11 0 12 0;
#X connect 12 0 6 2;
#X connect 13 0 20 0;
#X connect 14 0 19 0;
#X connect 15 0 18 0;
#X connect 16 0 17 0;
#X connect 17 0 10 2;
#X connect 18 0 9 2;
#X connect 19 0 8 2;
#X connect 20 0 7 2;
#X connect 21 0 5 0;
#X connect 21 1 4 0;
#X connect 21 2 1 0;
