#N canvas 65 431 885 434 10;
#X obj 374 83 netreceive 3000 1;
#X obj 538 138 print unknown-command;
#X obj 720 211 route A B C D E;
#X obj 95 192 route A B C D E;
#X obj 94 355 multi_channel_player;
#X obj 241 354 multi_channel_player;
#X obj 390 353 multi_channel_player;
#X obj 537 352 multi_channel_player;
#X obj 683 353 multi_channel_player;
#X obj 168 310 loadbang;
#X msg 193 333 0;
#X obj 316 305 loadbang;
#X obj 459 305 loadbang;
#X obj 608 304 loadbang;
#X obj 755 305 loadbang;
#X msg 780 328 1;
#X msg 633 327 0.75;
#X msg 484 328 0.5;
#X msg 333 327 0.25;
#X obj 374 121 route l p;
#X text 97 -5 command line: echo "l A 1 ../media/A1.wav" | /Applications/Pd-0.48-1.app/Contents/Resources/bin/pdsend
3000 localhost udp echo "p A 1" | /Applications/Pd-0.48-1.app/Contents/Resources/bin/pdsend
3000 localhost udp, f 113;
#X connect 0 0 19 0;
#X connect 2 0 4 1;
#X connect 2 1 5 1;
#X connect 2 2 6 1;
#X connect 2 3 7 1;
#X connect 2 4 8 1;
#X connect 3 0 4 0;
#X connect 3 1 5 0;
#X connect 3 2 6 0;
#X connect 3 3 7 0;
#X connect 3 4 8 0;
#X connect 9 0 10 0;
#X connect 10 0 4 2;
#X connect 11 0 18 0;
#X connect 12 0 17 0;
#X connect 13 0 16 0;
#X connect 14 0 15 0;
#X connect 15 0 8 2;
#X connect 16 0 7 2;
#X connect 17 0 6 2;
#X connect 18 0 5 2;
#X connect 19 0 3 0;
#X connect 19 1 2 0;
#X connect 19 2 1 0;
