#N canvas 22 81 1306 497 10;
#X obj 374 35 netreceive 3000 1;
#X obj 173 299 loadbang;
#X msg 191 326 0;
#X obj 325 293 loadbang;
#X obj 459 305 loadbang;
#X obj 608 304 loadbang;
#X obj 788 303 loadbang;
#X msg 785 329 1;
#X msg 468 329 0.5;
#X msg 337 326 0.25;
#X obj 1024 51 float;
#X obj 1031 145 print restartLoop;
#X obj 877 71 t b f;
#X msg 933 165 stop;
#X obj 1021 189 metro;
#X text 1168 97 4 bars;
#X obj 1031 97 expr 1000/($f1/60)*4;
#X msg 625 326 0.75;
#X obj 94 355 multi_channel_player;
#X obj 683 353 multi_channel_player;
#X obj 241 354 multi_channel_player;
#X obj 390 353 multi_channel_player;
#X obj 537 352 multi_channel_player;
#X obj 251 88 route A B C D E all;
#X obj 606 46 route loop volume;
#X msg 1025 230 1 play \, 2 play \, 3 play \, 4 play \, 5 play;
#X connect 0 0 23 0;
#X connect 1 0 2 0;
#X connect 2 0 18 1;
#X connect 3 0 9 0;
#X connect 4 0 8 0;
#X connect 5 0 17 0;
#X connect 6 0 7 0;
#X connect 7 0 19 1;
#X connect 8 0 21 1;
#X connect 9 0 20 1;
#X connect 10 0 16 0;
#X connect 12 0 14 0;
#X connect 12 1 10 0;
#X connect 13 0 14 0;
#X connect 14 0 25 0;
#X connect 16 0 11 0;
#X connect 16 0 14 1;
#X connect 17 0 22 1;
#X connect 23 0 18 0;
#X connect 23 1 20 0;
#X connect 23 2 21 0;
#X connect 23 3 22 0;
#X connect 23 4 19 0;
#X connect 23 5 24 0;
#X connect 24 0 12 0;
#X connect 25 0 18 0;
#X connect 25 0 20 0;
#X connect 25 0 21 0;
#X connect 25 0 22 0;
#X connect 25 0 19 0;
